#!OML:ASF F:\VICON\USERDATA\INSTALL\rory3\rory3.ASF
:FULLY-SPECIFIED
:DEGREES
71
root 1.0430631874689638 17.907290201164297 27.590265744091365 -4.697508866257486 0.14844126990907613 -0.7680724365927107
lfemur -4.927131474875692 -1.719167287539301 -22.143095876084384
ltibia 28.785470822663846
lfoot -16.640377292446928 0.026957100176240978
ltoes -4.580192560002947
rfemur -23.808594463395394 -3.387316876745249 23.44747723835115
rtibia 71.66868898112239
rfoot -8.082502907276753 -8.18753929746043
rtoes 5.017904906440977
lowerback 11.493696759070284 0.3307772559972013 -1.31975361272993
upperback 0.01009524391276792 0.4023598578360087 1.1633350082350593
thorax -6.542975267144912 0.2513764987709614 1.9581252733897785
lowerneck -15.854133827509349 -3.234019074939678 -2.0780807448668295
upperneck 21.51794979743362 -4.215112803679662 1.1465330032925727
head 9.52063374470764 -1.9850665997736925 0.18663704671632653
lclavicle 2.9999212466144144e-16 5.594664880237318e-17
lhumerus -29.945148888170067 4.377786129799356 80.35832561686321
lradius 25.85972518926406
lwrist 8.347654299008994
lhand -29.066391621317116 20.03333605903859
lfingers 7.125020000000001
lthumb -2.406483527091941 49.870188971433286
rclavicle 2.9934356455516193e-16 5.694674696999306e-17
rhumerus -30.882224242291148 -21.01609791610965 -78.29520561733946
rradius 28.07590961588941
rwrist 4.0963174711347525
rhand -17.15078771182848 22.262316910466943
rfingers 7.125020000000001
rthumb 9.131855091409792 -7.636814672101508
72
root 1.0158934542809104 17.9114157358137 27.96883925917183 -4.400128786070472 0.7262605394627147 -0.6568747787307196
lfemur -3.0702021161218536 -2.1372600815090372 -22.419968594986802
ltibia 28.212280342659625
lfoot -17.019972334560943 -0.21439664014864812
ltoes -4.122066658033063
rfemur -26.41691509463095 -2.9400163843735774 23.671265042490173
rtibia 64.80465326454123
rfoot -9.054655989657862 -9.018989674937268
rtoes 1.1123137184866474
lowerback 11.677421722418186 0.03571127333748417 -1.6728911636463832
upperback 0.1287251949453029 -0.06440453171896399 1.30893163998894
thorax -6.5007712010246745 0.03286855266609043 2.4919722503459445
lowerneck -15.982258002644393 -3.2920305910317373 -2.294422381041179
upperneck 21.571383506349857 -4.2381225609463264 1.2039460258726924
head 9.551096675572136 -1.9951371881292772 0.23649421696674497
lclavicle 2.996437123953376e-16 5.569645881058483e-17
lhumerus -28.637181435973933 2.896741507029399 80.19736975926303
lradius 27.77380366812352
lwrist 8.707484778036502
lhand -29.007197324976794 20.12075394260929
lfingers 7.125020000000001
lthumb -2.385986690232829 49.80241701314875
rclavicle 2.972025229467799e-16 5.530934385431665e-17
rhumerus -31.983383680296058 -20.82260294220922 -78.22895846019439
rradius 28.65431838111159
rwrist 3.571876505321152
rhand -17.161220611614667 22.67405086967605
rfingers 7.125020000000001
rthumb 9.09365438246202 -7.262972159024543
73
root 0.985727853778124 17.906065230102808 28.500266763062974 -4.137408209026365 1.3236774492611763 -0.209682498473152
lfemur -0.7202942493888607 -2.211777219400233 -22.96043497200617
ltibia 26.782962309141894
lfoot -17.323593969358377 -0.6517241702296408
ltoes -4.830927966462709
rfemur -27.85227466742049 -1.9929798174746542 23.123014063746794
rtibia 55.14844118379128
rfoot -9.178411355804762 -10.276335689867249
rtoes 1.8203860536897274
lowerback 11.726684344918526 -0.2463188605534641 -2.241190681963001
upperback 0.257526206424519 -0.5706144924284566 1.3106296672100803
thorax -6.397057828029473 -0.1895669258168979 2.9983893616885924
lowerneck -16.01743261664624 -3.257432236589998 -2.296935015674894
upperneck 21.47044939242817 -4.179260014962848 1.175373498661493
head 9.527648238044033 -1.9757946883939037 0.2556381980166448
lclavicle 2.999099917355799e-16 5.588762842032885e-17
lhumerus -27.458987165634056 1.3642385366274827 80.04923276072891
lradius 29.929937731480592
lwrist 9.807334145868705
lhand -29.14081076655822 20.176755814974307
lfingers 7.125020000000001
lthumb -2.7451696935847436 49.550182661947304
rclavicle 2.961883325300898e-16 5.4635266014970505e-17
rhumerus -32.91162517528941 -20.705790679022783 -78.02228003752919
rradius 28.74867987981889
rwrist 2.6476718472085725
rhand -17.270842689720613 22.805133518419716
rfingers 7.125020000000001
rthumb 8.967424468751712 -7.166869727863423
74
root 0.9582944640147234 17.89044192908799 28.8824499234016 -3.385988668036859 1.6019737274954986 0.49746724439629064
lfemur 1.8268770326507058 -2.013134958498137 -23.864372063847938
ltibia 24.515881880575236
lfoot -17.457490231754004 -0.8752739445006199
ltoes -4.938668278358999
rfemur -28.580781279987463 -0.2500931753234381 21.618213644341772
rtibia 43.26006953504979
rfoot -8.26978952823457 -11.794327986456503
rtoes -0.22051947821409357
lowerback 11.295015634094543 -0.4061954900123633 -3.1745601988923644
upperback 0.22905938500908035 -0.8685027299418646 1.204254309849647
thorax -6.218583874111365 -0.326230297761393 3.44148316354189
lowerneck -16.092489785902973 -3.2971875628424905 -2.4332616625965318
upperneck 21.341041251837833 -4.222472920333568 1.357349598236403
head 9.512621464239919 -1.9922249562904677 0.328295764581917
lclavicle 2.988668200858116e-16 5.513808271083608e-17
lhumerus -26.521604289033572 0.15778205213933294 79.85325102409506
lradius 31.81073543088915
lwrist 10.39227168699204
lhand -29.00816037882788 21.355865854191947
lfingers 7.125020000000001
lthumb -2.48261011721287 51.17482544588694
rclavicle 2.9622087132772814e-16 5.461676026144337e-17
rhumerus -33.76857347798687 -20.90558761748584 -77.6379111460892
rradius 28.333473917174484
rwrist 2.8193302236506903
rhand -17.065342889266017 22.861306266577074
rfingers 7.125020000000001
rthumb 9.189060828186372 -6.8143795738079564
75
root 0.9073783735038872 17.849770908731582 29.51594431306216 -2.686568050117525 2.1756158298302943 0.6507343673095396
lfemur 4.578522729381807 -1.951473506984387 -23.77771018278692
ltibia 22.096337598204574
lfoot -17.946103694994846 -1.2799949771731185
ltoes -7.793442102626849
rfemur -28.17032914135408 2.6571467998013807 20.574280827686486
rtibia 30.132769483060095
rfoot -7.95771980255771 -13.593353749568223
rtoes -1.5098531226118026
lowerback 10.950029542718712 -0.6585904848588154 -3.587692296819921
upperback 0.1302944394241649 -1.2235235928896473 1.2809930730771577
thorax -6.126390759262899 -0.49007530655491915 3.8360236346359367
lowerneck -16.28722093058922 -3.277563800637275 -2.412458440249541
upperneck 21.290131549698234 -4.188378214419059 1.4157132153184668
head 9.527182814690615 -1.9713790569270073 0.3485576384897208
lclavicle 2.9935420283715773e-16 5.548804121100026e-17
lhumerus -25.50842649047868 -0.4128911496009713 79.61509060074982
lradius 33.49108015152457
lwrist 10.860330642398354
lhand -29.0724092381603 21.78715755382059
lfingers 7.125020000000001
lthumb -2.417669763900033 51.114716940406154
rclavicle 2.9748759419823665e-16 5.553790626981413e-17
rhumerus -34.658653003044485 -21.581492895511172 -77.15021589402721
rradius 27.8391803513178
rwrist 3.5168530697874085
rhand -17.246467681295556 23.547084480937524
rfingers 7.125020000000001
rthumb 9.022123759315953 -6.148623420363911
76
root 0.8451281487592505 17.783027698940746 29.94504059644894 -2.2956025108179836 2.994832650476969 0.8820851940681163
lfemur 7.546004186544782 -2.2853239182425003 -23.76999108150046
ltibia 19.899413917450484
lfoot -18.645312100874456 -2.012310014018822
ltoes -11.809176312542174
rfemur -26.94079767451584 5.250790472005649 19.227083011851253
rtibia 19.50941469625821
rfoot -9.2275307994999 -15.258018449959094
rtoes -5.074661392849986
lowerback 10.721986724615522 -0.9478793938153696 -4.2460801904858085
upperback 0.11152566507573866 -1.7094345074984052 1.2847841753307176
thorax -5.935654858620829 -0.7085453075416455 4.305370582192969
lowerneck -16.41166095594553 -3.288769861790588 -2.447475433153819
upperneck 21.350374776364365 -4.2436292980863985 1.601228231239262
head 9.576670136667971 -1.9833333999031408 0.40758794272409415
lclavicle 3.0013239051845277e-16 5.604722932273714e-17
lhumerus -24.722882480663458 -0.41320673953941567 79.220721595373
lradius 34.561693696220985
lwrist 11.156740475264511
lhand -29.298335483266438 20.410658408636863
lfingers 7.125020000000001
lthumb -2.5386360198631506 50.47008023762966
rclavicle 2.9577114207555153e-16 5.431464008464441e-17
rhumerus -35.76391196253463 -22.62595810368458 -76.33210575029815
rradius 26.881210384048362
rwrist 4.339063307195962
rhand -17.22163276354758 23.781251289867434
rfingers 7.125020000000001
rthumb 8.999659635069655 -6.07443566178552
